<svg xmlns="http://www.w3.org/2000/svg" viewBox="0 0 800 420">
  <defs>
    <linearGradient id="bg3" x1="0%" y1="0%" x2="100%" y2="100%">
      <stop offset="0%" style="stop-color:#0a1628"/><stop offset="100%" style="stop-color:#1a3058"/>
    </linearGradient>
    <linearGradient id="bar" x1="0%" y1="0%" x2="100%" y2="0%">
      <stop offset="0%" style="stop-color:#4facfe"/><stop offset="100%" style="stop-color:#00f2fe"/>
    </linearGradient>
  </defs>
  <rect width="800" height="420" fill="url(#bg3)" rx="16"/>
  <text x="400" y="50" text-anchor="middle" fill="rgba(255,255,255,0.9)" font-family="sans-serif" font-size="22" font-weight="700">TonBoVPN 实测评分</text>
  <!-- Score bars -->
  <g transform="translate(100,90)">
    <text y="18" fill="rgba(255,255,255,0.7)" font-size="14">稳定性</text>
    <rect x="120" y="4" width="480" height="22" rx="11" fill="rgba(255,255,255,0.08)"/>
    <rect x="120" y="4" width="456" height="22" rx="11" fill="url(#bar)"/>
    <text x="590" y="20" fill="#4facfe" font-size="14" font-weight="600">95%</text>
  </g>
  <g transform="translate(100,140)">
    <text y="18" fill="rgba(255,255,255,0.7)" font-size="14">AI 可用性</text>
    <rect x="120" y="4" width="480" height="22" rx="11" fill="rgba(255,255,255,0.08)"/>
    <rect x="120" y="4" width="432" height="22" rx="11" fill="url(#bar)"/>
    <text x="566" y="20" fill="#4facfe" font-size="14" font-weight="600">90%</text>
  </g>
  <g transform="translate(100,190)">
    <text y="18" fill="rgba(255,255,255,0.7)" font-size="14">晚高峰速度</text>
    <rect x="120" y="4" width="480" height="22" rx="11" fill="rgba(255,255,255,0.08)"/>
    <rect x="120" y="4" width="408" height="22" rx="11" fill="url(#bar)"/>
    <text x="542" y="20" fill="#4facfe" font-size="14" font-weight="600">85%</text>
  </g>
  <g transform="translate(100,240)">
    <text y="18" fill="rgba(255,255,255,0.7)" font-size="14">易用性</text>
    <rect x="120" y="4" width="480" height="22" rx="11" fill="rgba(255,255,255,0.08)"/>
    <rect x="120" y="4" width="432" height="22" rx="11" fill="url(#bar)"/>
    <text x="566" y="20" fill="#4facfe" font-size="14" font-weight="600">90%</text>
  </g>
  <g transform="translate(100,290)">
    <text y="18" fill="rgba(255,255,255,0.7)" font-size="14">性价比</text>
    <rect x="120" y="4" width="480" height="22" rx="11" fill="rgba(255,255,255,0.08)"/>
    <rect x="120" y="4" width="420" height="22" rx="11" fill="url(#bar)"/>
    <text x="554" y="20" fill="#4facfe" font-size="14" font-weight="600">88%</text>
  </g>
  <!-- Platforms -->
  <g transform="translate(400,370)">
    <text text-anchor="middle" fill="rgba(255,255,255,0.4)" font-size="14">支持平台：Windows · Mac · iOS · Android</text>
  </g>
</svg>
