<svg xmlns="http://www.w3.org/2000/svg" viewBox="0 0 800 440">
  <defs>
    <linearGradient id="mapBg" x1="0%" y1="0%" x2="100%" y2="100%">
      <stop offset="0%" style="stop-color:#0a1628"/><stop offset="100%" style="stop-color:#162040"/>
    </linearGradient>
    <filter id="nodeGlow">
      <feGaussianBlur stdDeviation="4" result="blur"/>
      <feMerge><feMergeNode in="blur"/><feMergeNode in="SourceGraphic"/></feMerge>
    </filter>
  </defs>
  <rect width="800" height="440" fill="url(#mapBg)" rx="16"/>
  <!-- Title -->
  <text x="400" y="38" text-anchor="middle" fill="rgba(255,255,255,0.9)" font-family="sans-serif" font-size="20" font-weight="700">TonBoVPN 全球节点覆盖</text>
  <text x="400" y="60" text-anchor="middle" fill="rgba(255,255,255,0.4)" font-family="sans-serif" font-size="12">17+ 国家与地区 · 原生 IP · 持续扩展中</text>
  <!-- Simplified world map outline -->
  <g opacity="0.12" stroke="#4facfe" stroke-width="0.8" fill="none" transform="translate(60,60)">
    <!-- North America -->
    <path d="M 80,100 Q 100,70 140,65 Q 170,60 200,80 Q 210,90 220,100 Q 200,130 180,150 Q 150,160 120,150 Q 90,140 80,120 Z"/>
    <!-- South America -->
    <path d="M 160,180 Q 180,170 190,190 Q 200,220 190,260 Q 180,280 165,290 Q 150,280 145,260 Q 140,230 150,200 Z"/>
    <!-- Europe -->
    <path d="M 340,75 Q 360,65 380,70 Q 400,75 410,90 Q 405,105 390,110 Q 370,108 355,100 Q 340,90 340,75 Z"/>
    <!-- Africa -->
    <path d="M 360,130 Q 380,120 400,130 Q 410,150 405,180 Q 395,210 380,220 Q 365,215 355,195 Q 348,170 350,150 Z"/>
    <!-- Asia -->
    <path d="M 420,60 Q 460,50 510,55 Q 560,60 590,80 Q 600,100 580,120 Q 550,130 510,125 Q 470,115 440,100 Q 420,85 420,60 Z"/>
    <!-- Southeast Asia / Oceania -->
    <path d="M 540,140 Q 560,135 580,140 Q 600,150 610,165 Q 600,175 580,170 Q 560,165 545,155 Z"/>
  </g>
  <!-- Node markers with labels -->
  <!-- HK -->
  <circle cx="540" cy="175" r="5" fill="#3b82f6" filter="url(#nodeGlow)"/>
  <circle cx="540" cy="175" r="2" fill="#fff"/>
  <text x="540" y="195" text-anchor="middle" fill="rgba(255,255,255,0.7)" font-family="sans-serif" font-size="9">香港</text>
  <!-- TW -->
  <circle cx="560" cy="170" r="5" fill="#3b82f6" filter="url(#nodeGlow)"/>
  <circle cx="560" cy="170" r="2" fill="#fff"/>
  <text x="572" y="165" fill="rgba(255,255,255,0.7)" font-family="sans-serif" font-size="9">台湾</text>
  <!-- JP -->
  <circle cx="590" cy="145" r="6" fill="#22c55e" filter="url(#nodeGlow)"/>
  <circle cx="590" cy="145" r="2.5" fill="#fff"/>
  <text x="608" y="142" fill="#22c55e" font-family="sans-serif" font-size="10" font-weight="600">日本 ★</text>
  <!-- KR -->
  <circle cx="570" cy="148" r="5" fill="#3b82f6" filter="url(#nodeGlow)"/>
  <circle cx="570" cy="148" r="2" fill="#fff"/>
  <text x="570" y="138" text-anchor="middle" fill="rgba(255,255,255,0.7)" font-family="sans-serif" font-size="9">韩国</text>
  <!-- SG -->
  <circle cx="530" cy="215" r="6" fill="#22c55e" filter="url(#nodeGlow)"/>
  <circle cx="530" cy="215" r="2.5" fill="#fff"/>
  <text x="545" y="225" fill="#22c55e" font-family="sans-serif" font-size="10" font-weight="600">新加坡 ★</text>
  <!-- MY -->
  <circle cx="520" cy="210" r="4" fill="#3b82f6" filter="url(#nodeGlow)"/>
  <circle cx="520" cy="210" r="1.5" fill="#fff"/>
  <!-- TH -->
  <circle cx="510" cy="195" r="4" fill="#3b82f6" filter="url(#nodeGlow)"/>
  <circle cx="510" cy="195" r="1.5" fill="#fff"/>
  <text x="498" y="205" text-anchor="end" fill="rgba(255,255,255,0.7)" font-family="sans-serif" font-size="9">泰国</text>
  <!-- VN -->
  <circle cx="520" cy="195" r="4" fill="#3b82f6" filter="url(#nodeGlow)"/>
  <circle cx="520" cy="195" r="1.5" fill="#fff"/>
  <!-- IN -->
  <circle cx="480" cy="195" r="4" fill="#3b82f6" filter="url(#nodeGlow)"/>
  <circle cx="480" cy="195" r="1.5" fill="#fff"/>
  <text x="480" y="210" text-anchor="middle" fill="rgba(255,255,255,0.7)" font-family="sans-serif" font-size="9">印度</text>
  <!-- TR -->
  <circle cx="415" cy="150" r="4" fill="#3b82f6" filter="url(#nodeGlow)"/>
  <circle cx="415" cy="150" r="1.5" fill="#fff"/>
  <text x="415" y="165" text-anchor="middle" fill="rgba(255,255,255,0.7)" font-family="sans-serif" font-size="9">土耳其</text>
  <!-- US -->
  <circle cx="160" cy="150" r="6" fill="#3b82f6" filter="url(#nodeGlow)"/>
  <circle cx="160" cy="150" r="2.5" fill="#fff"/>
  <text x="160" y="168" text-anchor="middle" fill="rgba(255,255,255,0.7)" font-family="sans-serif" font-size="10">美国</text>
  <!-- CA -->
  <circle cx="155" cy="120" r="4" fill="#3b82f6" filter="url(#nodeGlow)"/>
  <circle cx="155" cy="120" r="1.5" fill="#fff"/>
  <text x="155" y="115" text-anchor="middle" fill="rgba(255,255,255,0.7)" font-family="sans-serif" font-size="9">加拿大</text>
  <!-- BR -->
  <circle cx="230" cy="275" r="4" fill="#3b82f6" filter="url(#nodeGlow)"/>
  <circle cx="230" cy="275" r="1.5" fill="#fff"/>
  <text x="230" y="290" text-anchor="middle" fill="rgba(255,255,255,0.7)" font-family="sans-serif" font-size="9">巴西</text>
  <!-- GB -->
  <circle cx="350" cy="115" r="4" fill="#3b82f6" filter="url(#nodeGlow)"/>
  <circle cx="350" cy="115" r="1.5" fill="#fff"/>
  <text x="350" y="108" text-anchor="middle" fill="rgba(255,255,255,0.7)" font-family="sans-serif" font-size="9">英国</text>
  <!-- DE -->
  <circle cx="370" cy="120" r="4" fill="#3b82f6" filter="url(#nodeGlow)"/>
  <circle cx="370" cy="120" r="1.5" fill="#fff"/>
  <text x="382" y="115" fill="rgba(255,255,255,0.7)" font-family="sans-serif" font-size="9">德国</text>
  <!-- NL -->
  <circle cx="365" cy="112" r="4" fill="#3b82f6" filter="url(#nodeGlow)"/>
  <circle cx="365" cy="112" r="1.5" fill="#fff"/>
  <!-- NG -->
  <circle cx="370" cy="215" r="4" fill="#3b82f6" filter="url(#nodeGlow)"/>
  <circle cx="370" cy="215" r="1.5" fill="#fff"/>
  <text x="370" y="230" text-anchor="middle" fill="rgba(255,255,255,0.7)" font-family="sans-serif" font-size="9">尼日利亚</text>
  <!-- Connection lines from China to popular nodes -->
  <g opacity="0.15" stroke="#4facfe" stroke-width="1" stroke-dasharray="4,4">
    <line x1="520" y1="170" x2="590" y2="145"/>
    <line x1="520" y1="170" x2="530" y2="215"/>
    <line x1="520" y1="170" x2="540" y2="175"/>
    <line x1="520" y1="170" x2="160" y2="150"/>
  </g>
  <!-- User location -->
  <circle cx="520" cy="170" r="8" fill="none" stroke="#fbbf24" stroke-width="1.5" opacity="0.6"/>
  <circle cx="520" cy="170" r="3" fill="#fbbf24"/>
  <text x="520" y="160" text-anchor="middle" fill="#fbbf24" font-family="sans-serif" font-size="9" font-weight="600">你的位置</text>
  <!-- Legend -->
  <g transform="translate(40, 370)">
    <rect width="720" height="50" rx="10" fill="rgba(255,255,255,0.03)" stroke="rgba(255,255,255,0.06)" stroke-width="1"/>
    <circle cx="30" cy="25" r="5" fill="#22c55e"/>
    <text x="45" y="29" fill="rgba(255,255,255,0.6)" font-family="sans-serif" font-size="11">推荐节点（低延迟）</text>
    <circle cx="200" cy="25" r="5" fill="#3b82f6"/>
    <text x="215" y="29" fill="rgba(255,255,255,0.6)" font-family="sans-serif" font-size="11">可用节点</text>
    <circle cx="340" cy="25" r="5" fill="#fbbf24"/>
    <text x="355" y="29" fill="rgba(255,255,255,0.6)" font-family="sans-serif" font-size="11">用户位置</text>
    <text x="700" y="29" text-anchor="end" fill="rgba(255,255,255,0.3)" font-family="sans-serif" font-size="10">数据来源：tonbovpn.com</text>
  </g>
</svg>