<svg xmlns="http://www.w3.org/2000/svg" viewBox="0 0 1200 630">
  <defs>
    <linearGradient id="bg" x1="0%" y1="0%" x2="100%" y2="100%">
      <stop offset="0%" style="stop-color:#0f1a3c"/>
      <stop offset="100%" style="stop-color:#1a3a6e"/>
    </linearGradient>
    <linearGradient id="accent" x1="0%" y1="0%" x2="100%" y2="0%">
      <stop offset="0%" style="stop-color:#4facfe"/>
      <stop offset="100%" style="stop-color:#00f2fe"/>
    </linearGradient>
  </defs>
  <rect width="1200" height="630" fill="url(#bg)"/>
  <!-- Grid dots -->
  <g fill="rgba(255,255,255,0.06)">
    <circle cx="100" cy="100" r="2"/><circle cx="200" cy="100" r="2"/><circle cx="300" cy="100" r="2"/><circle cx="400" cy="100" r="2"/><circle cx="500" cy="100" r="2"/><circle cx="600" cy="100" r="2"/><circle cx="700" cy="100" r="2"/><circle cx="800" cy="100" r="2"/><circle cx="900" cy="100" r="2"/><circle cx="1000" cy="100" r="2"/><circle cx="1100" cy="100" r="2"/>
    <circle cx="100" cy="200" r="2"/><circle cx="200" cy="200" r="2"/><circle cx="300" cy="200" r="2"/><circle cx="400" cy="200" r="2"/><circle cx="500" cy="200" r="2"/><circle cx="600" cy="200" r="2"/><circle cx="700" cy="200" r="2"/><circle cx="800" cy="200" r="2"/><circle cx="900" cy="200" r="2"/><circle cx="1000" cy="200" r="2"/><circle cx="1100" cy="200" r="2"/>
    <circle cx="100" cy="300" r="2"/><circle cx="200" cy="300" r="2"/><circle cx="300" cy="300" r="2"/><circle cx="400" cy="300" r="2"/><circle cx="500" cy="300" r="2"/><circle cx="600" cy="300" r="2"/><circle cx="700" cy="300" r="2"/><circle cx="800" cy="300" r="2"/><circle cx="900" cy="300" r="2"/><circle cx="1000" cy="300" r="2"/><circle cx="1100" cy="300" r="2"/>
    <circle cx="100" cy="400" r="2"/><circle cx="200" cy="400" r="2"/><circle cx="300" cy="400" r="2"/><circle cx="400" cy="400" r="2"/><circle cx="500" cy="400" r="2"/><circle cx="600" cy="400" r="2"/><circle cx="700" cy="400" r="2"/><circle cx="800" cy="400" r="2"/><circle cx="900" cy="400" r="2"/><circle cx="1000" cy="400" r="2"/><circle cx="1100" cy="400" r="2"/>
    <circle cx="100" cy="500" r="2"/><circle cx="200" cy="500" r="2"/><circle cx="300" cy="500" r="2"/><circle cx="400" cy="500" r="2"/><circle cx="500" cy="500" r="2"/><circle cx="600" cy="500" r="2"/><circle cx="700" cy="500" r="2"/><circle cx="800" cy="500" r="2"/><circle cx="900" cy="500" r="2"/><circle cx="1000" cy="500" r="2"/><circle cx="1100" cy="500" r="2"/>
  </g>
  <!-- Shield icon -->
  <g transform="translate(600,240)">
    <path d="M0-120 C60-120 100-80 100-20 C100 60 0 120 0 120 C0 120 -100 60 -100-20 C-100-80 -60-120 0-120Z" fill="none" stroke="url(#accent)" stroke-width="3" opacity="0.8"/>
    <path d="M0-80 C40-80 65-50 65-10 C65 45 0 85 0 85 C0 85 -65 45 -65-10 C-65-50 -40-80 0-80Z" fill="rgba(79,172,254,0.1)"/>
    <text x="0" y="10" text-anchor="middle" fill="url(#accent)" font-family="sans-serif" font-size="48" font-weight="bold">✓</text>
  </g>
  <!-- Title -->
  <text x="600" y="430" text-anchor="middle" fill="#ffffff" font-family="-apple-system,BlinkMacSystemFont,sans-serif" font-size="42" font-weight="700">2026 网络加速工具实测对比</text>
  <text x="600" y="480" text-anchor="middle" fill="rgba(255,255,255,0.6)" font-family="-apple-system,BlinkMacSystemFont,sans-serif" font-size="22">ChatGPT · YouTube · Telegram · 晚高峰稳定性评测</text>
  <!-- Tag -->
  <rect x="490" y="510" width="220" height="36" rx="18" fill="url(#accent)" opacity="0.9"/>
  <text x="600" y="534" text-anchor="middle" fill="#0f1a3c" font-family="sans-serif" font-size="16" font-weight="600">全球数字生活指南</text>
</svg>
